<?xml version="1.0" encoding="UTF-8"?>
<svg width="1082px" height="552px" viewBox="0 0 1082 552" version="1.1" xmlns="http://www.w3.org/2000/svg" xmlns:xlink="http://www.w3.org/1999/xlink">
    <!-- Generator: Sketch 48.2 (47327) - http://www.bohemiancoding.com/sketch -->
    <title>Page 1</title>
    <desc>Created with Sketch.</desc>
    <defs></defs>
    <g id="Page-1" stroke="none" stroke-width="1" fill="none" fill-rule="evenodd">
        <g>
            <polygon id="Fill-1" fill="#272727" points="0 552 1082 552 1082 0 0 0"></polygon>
            <g id="Group-68" transform="translate(107.000000, 125.000000)">
                <path d="M330.6611,37.8291 L352.9521,37.7291 L353.0381,56.9671 L331.3921,57.0641 L331.7101,127.8371 L306.5101,127.9501 L306.1931,57.1771 L292.7861,57.2371 L292.6991,37.9991 L306.1061,37.9391 L306.0901,34.0911 C306.0461,24.2591 308.9431,16.4441 314.7891,10.6441 C320.6311,4.8471 328.8841,1.9241 339.5461,1.8761 C343.3141,1.8601 346.8971,2.2461 350.2931,3.0301 C353.6891,3.8161 356.5211,4.9551 358.7891,6.4401 L352.2471,24.5871 C349.3311,22.5691 345.9341,21.5691 342.0571,21.5861 C334.4101,21.6211 330.6071,25.8051 330.6441,34.1421 L330.6611,37.8291 Z" id="Fill-2" fill="#FFFFFF"></path>
                <polygon id="Fill-4" fill="#FFFFFF" points="371.1182 2.0703 396.3182 1.9573 396.8822 127.5453 371.6812 127.6573"></polygon>
                <path d="M507.4658,40.1416 L507.8558,127.0476 L483.9478,127.1546 L483.9028,116.8166 C480.5778,120.6026 476.6048,123.5006 471.9868,125.5116 C467.3638,127.5256 462.3598,128.5426 456.9778,128.5676 C445.5608,128.6186 436.4998,125.3766 429.7948,118.8346 C423.0868,112.2976 419.7048,102.5646 419.6478,89.6416 L419.4278,40.5366 L444.6258,40.4226 L444.8288,85.8136 C444.8928,99.8156 450.7938,106.7866 462.5318,106.7346 C468.5628,106.7066 473.4008,104.7236 477.0448,100.7736 C480.6868,96.8266 482.4918,90.9756 482.4568,83.2216 L482.2648,40.2546 L507.4658,40.1416 Z" id="Fill-6" fill="#FFFFFF"></path>
                <path d="M531.9395,25.5269 C529.1375,22.7999 527.7275,19.4049 527.7095,15.3449 C527.6915,11.2909 529.0705,7.8829 531.8475,5.1289 C534.6255,2.3749 538.2345,0.9859 542.6795,0.9659 C547.1215,0.9459 550.7465,2.2449 553.5465,4.8659 C556.3485,7.4849 557.7575,10.7689 557.7755,14.7179 C557.7945,18.9939 556.4165,22.5389 553.6385,25.3469 C550.8625,28.1549 547.2505,29.5719 542.8075,29.5919 C538.3635,29.6119 534.7415,28.2559 531.9395,25.5269" id="Fill-8" fill="#FFFFFF"></path>
                <polygon id="Fill-10" fill="#FFFFFF" points="530.8896 40.0366 556.0876 39.9236 556.4776 126.8296 531.2786 126.9426"></polygon>
                <path d="M637.291,100.5386 C633.111,104.9216 627.843,107.1256 621.489,107.1536 C615.028,107.1836 609.687,105.0266 605.47,100.6816 C601.248,96.3396 599.123,90.5086 599.09,83.1846 C599.057,75.8606 601.13,70.0086 605.312,65.6286 C609.491,61.2486 614.812,59.0446 621.273,59.0156 C627.627,58.9876 632.915,61.1436 637.134,65.4866 C641.354,69.8286 643.48,75.6616 643.513,82.9856 C643.546,90.3096 641.473,96.1596 637.291,100.5386 Z M642.66,0.5176 L642.876,48.7406 C636.597,41.7706 627.912,38.3076 616.819,38.3566 C608.635,38.3936 601.24,40.2606 594.634,43.9496 C588.028,47.6416 582.852,52.8866 579.114,59.6876 C575.376,66.4896 573.527,74.3616 573.567,83.2996 C573.607,92.2396 575.526,100.0886 579.325,106.8566 C583.124,113.6246 588.347,118.8256 594.986,122.4576 C601.625,126.0906 609.035,127.8856 617.221,127.8496 C629.065,127.7956 638.095,123.9866 644.309,116.4196 L644.353,126.4356 L668.423,126.3286 L667.858,0.4056 L642.66,0.5176 Z" id="Fill-12" fill="#FFFFFF"></path>
                <path d="M351.2061,242.8813 C356.0921,239.6313 359.7591,234.9293 362.2091,228.7783 L362.1381,212.9483 L333.3841,213.0773 C325.0911,213.1143 319.0951,214.6503 315.3931,217.6803 C311.6911,220.7143 309.8521,224.8703 309.8761,230.1453 C309.9001,235.6363 311.9651,239.9633 316.0731,243.1203 C320.1781,246.2803 325.9481,247.8423 333.3791,247.8093 C340.3771,247.7773 346.3201,246.1353 351.2061,242.8813 M361.6521,176.6833 C367.2741,181.9893 370.1121,189.8133 370.1581,200.1503 L370.3981,253.6193 L362.6441,253.6543 L362.5761,238.6313 C359.9051,243.5973 355.9931,247.4643 350.8371,250.2353 C345.6791,253.0043 339.4911,254.4043 332.2771,254.4363 C322.9081,254.4783 315.4931,252.3063 310.0361,247.9133 C304.5761,243.5243 301.8331,237.7213 301.8011,230.5033 C301.7691,223.5033 304.2471,217.8123 309.2361,213.4283 C314.2241,209.0453 322.2101,206.8253 333.1941,206.7773 L362.1101,206.6473 L362.0791,199.8653 C362.0441,192.0043 359.8901,186.0373 355.6181,181.9613 C351.3441,177.8903 345.1161,175.8683 336.9341,175.9053 C331.3331,175.9303 325.9781,176.9243 320.8731,178.8873 C315.7661,180.8473 311.4431,183.4533 307.9041,186.6973 L303.8401,180.9013 C308.0221,177.1143 313.0701,174.1563 318.9841,172.0303 C324.8971,169.9043 331.0861,168.8253 337.5481,168.7963 C347.9911,168.7493 356.0281,171.3783 361.6521,176.6833" id="Fill-14" fill="#FFFFFF"></path>
                <path d="M445.4863,247.9521 C443.4483,249.9011 440.8973,251.3941 437.8353,252.4291 C434.7703,253.4651 431.5663,253.9911 428.2283,254.0061 C420.9063,254.0391 415.2433,252.0461 411.2413,248.0241 C407.2383,244.0061 405.2203,238.3871 405.1883,231.1721 L404.9413,176.0871 L389.4333,176.1571 L389.4023,169.2101 L404.9113,169.1401 L404.8283,150.7261 L412.9063,150.6901 L412.9883,169.1041 L439.8003,168.9841 L439.8323,175.9311 L413.0193,176.0511 L413.2623,230.3281 C413.2873,235.8181 414.6233,239.9891 417.2753,242.8281 C419.9253,245.6711 423.8383,247.0791 429.0053,247.0561 C434.2803,247.0321 438.6363,245.4531 442.0703,242.3151 L445.4863,247.9521 Z" id="Fill-16" fill="#FFFFFF"></path>
                <path d="M507.5186,247.6743 C505.4806,249.6233 502.9296,251.1163 499.8646,252.1503 C496.7996,253.1873 493.5956,253.7133 490.2606,253.7283 C482.9366,253.7613 477.2726,251.7683 473.2706,247.7463 C469.2686,243.7273 467.2496,238.1093 467.2176,230.8943 L466.9706,175.8093 L451.4646,175.8783 L451.4336,168.9313 L466.9396,168.8623 L466.8576,150.4483 L474.9366,150.4123 L475.0186,168.8263 L501.8326,168.7063 L501.8646,175.6533 L475.0496,175.7733 L475.2926,230.0503 C475.3176,235.5403 476.6536,239.7113 479.3046,242.5503 C481.9566,245.3933 485.8686,246.8013 491.0376,246.7783 C496.3126,246.7543 500.6656,245.1743 504.0996,242.0373 L507.5186,247.6743 Z" id="Fill-18" fill="#FFFFFF"></path>
                <path d="M571.7031,241.8931 C576.5891,238.6431 580.2561,233.9411 582.7081,227.7901 L582.6371,211.9601 L553.8821,212.0891 C545.5881,212.1261 539.5931,213.6621 535.8911,216.6921 C532.1891,219.7261 530.3491,223.8821 530.3731,229.1571 C530.3971,234.6481 532.4631,238.9751 536.5701,242.1321 C540.6771,245.2921 546.4451,246.8541 553.8761,246.8211 C560.8761,246.7891 566.8171,245.1471 571.7031,241.8931 M582.1491,175.6951 C587.7731,181.0011 590.6091,188.8251 590.6551,199.1621 L590.8951,252.6311 L583.1411,252.6661 L583.0731,237.6431 C580.4031,242.6091 576.4901,246.4761 571.3341,249.2471 C566.1771,252.0161 559.9881,253.4161 552.7761,253.4481 C543.4051,253.4901 535.9901,251.3181 530.5331,246.9251 C525.0731,242.5361 522.3301,236.7331 522.2981,229.5151 C522.2661,222.5151 524.7461,216.8241 529.7331,212.4401 C534.7211,208.0571 542.7081,205.8371 553.6911,205.7891 L582.6081,205.6591 L582.5781,198.8771 C582.5431,191.0161 580.3891,185.0491 576.1151,180.9731 C571.8431,176.9021 565.6131,174.8801 557.4311,174.9171 C551.8311,174.9421 546.4761,175.9361 541.3701,177.8991 C536.2631,179.8591 531.9411,182.4651 528.4021,185.7091 L524.3371,179.9131 C528.5191,176.1261 533.5681,173.1681 539.4821,171.0421 C545.3941,168.9161 551.5841,167.8371 558.0451,167.8081 C568.4881,167.7611 576.5261,170.3901 582.1491,175.6951" id="Fill-20" fill="#FFFFFF"></path>
                <path d="M635.7773,247.583 C629.3003,243.953 624.2143,238.888 620.5243,232.388 C616.8333,225.888 614.9713,218.546 614.9343,210.361 C614.8973,202.07 616.6923,194.659 620.3253,188.126 C623.9583,181.594 628.9983,176.511 635.4423,172.874 C641.8893,169.238 649.2033,167.399 657.3873,167.363 C664.1733,167.333 670.3423,168.625 675.9003,171.238 C681.4593,173.853 685.9713,177.682 689.4433,182.726 L683.4833,187.117 C680.4513,182.929 676.6943,179.795 672.2153,177.715 C667.7353,175.636 662.8043,174.607 657.4213,174.631 C650.8513,174.661 644.9623,176.168 639.7543,179.152 C634.5423,182.139 630.4673,186.331 627.5323,191.729 C624.5923,197.129 623.1413,203.325 623.1733,210.324 C623.2043,217.327 624.7113,223.51 627.6983,228.88 C630.6823,234.254 634.7943,238.41 640.0323,241.347 C645.2673,244.286 651.1703,245.739 657.7393,245.709 C663.1233,245.685 668.0443,244.612 672.5053,242.493 C676.9653,240.373 680.6943,237.206 683.6893,232.994 L689.6883,237.328 C686.2613,242.406 681.7833,246.275 676.2493,248.936 C670.7153,251.603 664.5563,252.947 657.7713,252.978 C649.5873,253.014 642.2563,251.219 635.7773,247.583" id="Fill-22" fill="#FFFFFF"></path>
                <polygon id="Fill-24" fill="#FFFFFF" points="742.377 206.8828 720.496 227.0108 720.608 252.0498 712.53 252.0868 711.992 132.2238 720.071 132.1878 720.452 216.9978 774.184 167.4858 784.522 167.4388 748.33 201.6868 788.452 251.7458 778.44 251.7908"></polygon>
                <path d="M806.8613,249.2397 C800.7133,247.2237 795.9073,244.6597 792.4493,241.5527 L796.1353,235.0727 C799.5923,237.9647 804.0463,240.3677 809.4943,242.2817 C814.9403,244.1967 820.6253,245.1417 826.5483,245.1147 C835.0543,245.0767 841.3253,243.6477 845.3483,240.8287 C849.3763,238.0127 851.3773,234.1257 851.3543,229.1727 C851.3393,225.6167 850.2213,222.8227 848.0073,220.7867 C845.7893,218.7507 843.0623,217.2557 839.8293,216.3007 C836.5933,215.3447 832.1193,214.3417 826.4063,213.2907 C819.7213,212.1357 814.3353,210.8677 810.2363,209.4857 C806.1343,208.1067 802.6273,205.8607 799.7063,202.7487 C796.7843,199.6387 795.3113,195.3377 795.2873,189.8437 C795.2573,183.1687 798.0033,177.6357 803.5323,173.2497 C809.0553,168.8637 816.9353,166.6477 827.1673,166.6017 C832.5503,166.5777 837.8843,167.3087 843.1703,168.7917 C848.4513,170.2777 852.7683,172.2487 856.1203,174.7107 L852.4333,181.1877 C848.9733,178.7287 845.0373,176.8597 840.6143,175.5877 C836.1913,174.3167 831.6663,173.6877 827.0363,173.7087 C819.1753,173.7437 813.2583,175.2267 809.2883,178.1527 C805.3143,181.0767 803.3403,184.9107 803.3623,189.6457 C803.3793,193.4167 804.5213,196.3467 806.7933,198.4367 C809.0633,200.5257 811.8433,202.0757 815.1323,203.0847 C818.4233,204.0937 823.0313,205.1767 828.9613,206.3327 C835.5323,207.4887 840.8433,208.7307 844.8893,210.0577 C848.9343,211.3867 852.3613,213.5517 855.1753,216.5527 C857.9903,219.5567 859.4093,223.6987 859.4323,228.9737 C859.4643,235.9737 856.5823,241.5867 850.7833,245.8137 C844.9873,250.0387 836.8113,252.1757 826.2583,252.2217 C819.4743,252.2527 813.0083,251.2587 806.8613,249.2397" id="Fill-26" fill="#FFFFFF"></path>
                <path d="M241.5244,2.3159 L197.5074,2.5129 C193.1514,2.5329 189.6374,6.0779 189.6574,10.4339 C189.6764,14.7899 193.2224,18.3059 197.5784,18.2859 L233.7094,18.1239 L233.8794,56.0889 C233.8994,60.4439 237.4444,63.9589 241.8004,63.9389 C246.1564,63.9199 249.6704,60.3739 249.6514,56.0189 L249.4454,10.1659 C249.4254,5.8099 245.8794,2.2959 241.5244,2.3159" id="Fill-28" fill="#FE3435"></path>
                <path d="M93.5537,120.0469 L137.5697,119.8499 C142.7987,119.8259 147.0717,124.0609 147.0947,129.2899 L147.2997,175.1399 C147.3237,180.3699 143.0887,184.6439 137.8607,184.6679 C132.6307,184.6909 128.3597,180.4549 128.3357,175.2249 L128.1727,138.8579 L93.6387,139.0129 C88.4087,139.0359 84.1357,134.8009 84.1127,129.5719 C84.0887,124.3429 88.3247,120.0699 93.5537,120.0469 M137.3567,72.1639 L181.3717,71.9669 C186.6017,71.9429 190.8747,76.1779 190.8987,81.4069 L191.1047,127.2579 C191.1277,132.4869 186.8917,136.7609 181.6627,136.7849 C176.4337,136.8079 172.1607,132.5719 172.1377,127.3429 L171.9757,90.9759 L137.4417,91.1299 C132.2117,91.1539 127.9397,86.9179 127.9157,81.6889 C127.8927,76.4599 132.1267,72.1879 137.3567,72.1639 M0.5677,79.6659 L0.5717,80.5249 L1.2077,222.5929 L1.3647,257.5949 L36.3667,257.4379 L179.2947,256.7969 C198.5457,256.7109 214.2267,240.8889 214.1407,221.6379 L213.4997,78.7109 L213.3427,43.7079 L35.4127,44.5049 C16.1607,44.5919 0.4817,60.4139 0.5677,79.6659" id="Fill-30" fill="#FE3435"></path>
                <polygon id="Fill-32" fill="#FFFFFF" points="334.5469 303.4819 326.8669 323.7299 325.0439 323.7299 318.2179 306.1579 311.3519 323.7299 309.5679 323.7299 301.8879 303.4819 303.7489 303.4819 310.4989 321.5579 317.4019 303.4819 319.0709 303.4819 325.9369 321.5189 332.7629 303.4819"></polygon>
                <path d="M348.7051,305.9834 C347.5661,306.6174 346.6551,307.5094 345.9711,308.6604 C345.2851,309.8114 344.8901,311.1114 344.7871,312.5584 L360.3031,312.5584 C360.2251,311.1114 359.8371,309.8184 359.1391,308.6804 C358.4401,307.5424 357.5221,306.6504 356.3851,306.0044 C355.2471,305.3574 353.9671,305.0334 352.5451,305.0334 C351.1231,305.0334 349.8431,305.3504 348.7051,305.9834 Z M362.1651,314.0714 L344.7491,314.0714 C344.8001,315.6494 345.2001,317.0514 345.9501,318.2794 C346.7001,319.5084 347.7161,320.4584 348.9961,321.1304 C350.2761,321.8034 351.7171,322.1394 353.3201,322.1394 C354.6401,322.1394 355.8611,321.9004 356.9861,321.4224 C358.1111,320.9434 359.0481,320.2384 359.7981,319.3084 L360.9231,320.5874 C360.0441,321.6484 358.9381,322.4624 357.6061,323.0314 C356.2741,323.6004 354.8331,323.8854 353.2821,323.8854 C351.2651,323.8854 349.4681,323.4454 347.8911,322.5664 C346.3121,321.6864 345.0781,320.4714 344.1851,318.9204 C343.2941,317.3684 342.8481,315.5974 342.8481,313.6064 C342.8481,311.6414 343.2681,309.8764 344.1081,308.3114 C344.9481,306.7474 346.1061,305.5254 347.5801,304.6454 C349.0541,303.7674 350.7081,303.3264 352.5451,303.3264 C354.3811,303.3264 356.0291,303.7604 357.4901,304.6264 C358.9511,305.4934 360.1011,306.7014 360.9421,308.2534 C361.7831,309.8044 362.2031,311.5644 362.2031,313.5284 L362.1651,314.0714 Z" id="Fill-34" fill="#FFFFFF"></path>
                <path d="M407.2744,305.5376 C408.7484,307.0116 409.4854,309.1326 409.4854,311.8986 L409.4854,323.7296 L407.5454,323.7296 L407.5454,312.0546 C407.5454,309.7786 406.9694,308.0466 405.8204,306.8566 C404.6694,305.6676 403.0594,305.0726 400.9914,305.0726 C398.6114,305.0726 396.7364,305.7836 395.3664,307.2056 C393.9964,308.6276 393.3104,310.5416 393.3104,312.9466 L393.3104,323.7296 L391.3714,323.7296 L391.3714,294.9486 L393.3104,294.9486 L393.3104,307.7096 C394.0084,306.3136 395.0434,305.2346 396.4144,304.4716 C397.7844,303.7086 399.4004,303.3266 401.2624,303.3266 C403.7954,303.3266 405.8004,304.0646 407.2744,305.5376" id="Fill-36" fill="#FFFFFF"></path>
                <path d="M434.0957,321.1309 C435.2727,320.3559 436.1587,319.2309 436.7527,317.7559 L436.7527,313.9559 L429.8487,313.9559 C427.8577,313.9559 426.4157,314.3179 425.5247,315.0419 C424.6317,315.7659 424.1857,316.7609 424.1857,318.0279 C424.1857,319.3469 424.6767,320.3879 425.6597,321.1499 C426.6427,321.9139 428.0257,322.2939 429.8097,322.2939 C431.4907,322.2939 432.9187,321.9069 434.0957,321.1309 M436.6757,305.2469 C438.0207,306.5269 438.6927,308.4079 438.6927,310.8909 L438.6927,323.7299 L436.8307,323.7299 L436.8307,320.1229 C436.1847,321.3119 435.2407,322.2359 433.9987,322.8959 C432.7577,323.5549 431.2707,323.8849 429.5377,323.8849 C427.2887,323.8849 425.5107,323.3549 424.2047,322.2939 C422.8997,321.2349 422.2457,319.8379 422.2457,318.1049 C422.2457,316.4249 422.8477,315.0609 424.0497,314.0129 C425.2517,312.9659 427.1727,312.4429 429.8097,312.4429 L436.7527,312.4429 L436.7527,310.8129 C436.7527,308.9259 436.2417,307.4909 435.2217,306.5079 C434.1997,305.5249 432.7057,305.0339 430.7417,305.0339 C429.3967,305.0339 428.1097,305.2659 426.8817,305.7319 C425.6537,306.1969 424.6127,306.8179 423.7597,307.5939 L422.7887,306.1969 C423.7977,305.2929 425.0127,304.5879 426.4357,304.0839 C427.8577,303.5799 429.3447,303.3269 430.8957,303.3269 C433.4047,303.3269 435.3307,303.9669 436.6757,305.2469" id="Fill-38" fill="#FFFFFF"></path>
                <path d="M456.0684,322.5664 C454.5174,321.6864 453.3014,320.4654 452.4224,318.9004 C451.5434,317.3364 451.1034,315.5714 451.1034,313.6064 C451.1034,311.6154 451.5434,309.8374 452.4224,308.2724 C453.3014,306.7084 454.5174,305.4934 456.0684,304.6264 C457.6204,303.7604 459.3794,303.3264 461.3434,303.3264 C462.9734,303.3264 464.4534,303.6444 465.7864,304.2774 C467.1174,304.9114 468.1964,305.8364 469.0244,307.0504 L467.5894,308.0984 C466.8654,307.0884 465.9654,306.3334 464.8934,305.8294 C463.8204,305.3244 462.6364,305.0724 461.3434,305.0724 C459.7664,305.0724 458.3504,305.4284 457.0964,306.1394 C455.8424,306.8504 454.8604,307.8524 454.1494,309.1454 C453.4374,310.4384 453.0824,311.9244 453.0824,313.6064 C453.0824,315.2864 453.4374,316.7734 454.1494,318.0664 C454.8604,319.3594 455.8424,320.3624 457.0964,321.0724 C458.3504,321.7844 459.7664,322.1394 461.3434,322.1394 C462.6364,322.1394 463.8204,321.8874 464.8934,321.3824 C465.9654,320.8794 466.8654,320.1224 467.5894,319.1134 L469.0244,320.1614 C468.1964,321.3774 467.1174,322.3004 465.7864,322.9344 C464.4534,323.5684 462.9734,323.8854 461.3434,323.8854 C459.3794,323.8854 457.6204,323.4454 456.0684,322.5664" id="Fill-40" fill="#FFFFFF"></path>
                <polygon id="Fill-42" fill="#FFFFFF" points="488.3018 312.9077 483.0268 317.7177 483.0268 323.7297 481.0868 323.7297 481.0868 294.9487 483.0268 294.9487 483.0268 315.3127 495.9828 303.4817 498.4648 303.4817 489.7378 311.6667 499.3188 323.7297 496.9128 323.7297"></polygon>
                <path d="M543.3037,303.4819 L532.9077,326.4839 C532.1327,328.2679 531.2347,329.5349 530.2127,330.2849 C529.1907,331.0339 527.9827,331.4099 526.5857,331.4099 C525.6557,331.4099 524.7827,331.2539 523.9677,330.9439 C523.1537,330.6339 522.4607,330.1809 521.8927,329.5869 L522.8627,328.1129 C523.8967,329.1729 525.1507,329.7029 526.6237,329.7029 C527.6077,329.7029 528.4477,329.4319 529.1457,328.8879 C529.8437,328.3459 530.4907,327.4149 531.0847,326.0959 L532.1717,323.6519 L523.0557,303.4819 L525.1127,303.4819 L533.2187,321.5959 L541.3247,303.4819 L543.3037,303.4819 Z" id="Fill-44" fill="#FFFFFF"></path>
                <path d="M565.626,321.0532 C566.855,320.3292 567.824,319.3212 568.535,318.0282 C569.246,316.7352 569.602,315.2612 569.602,313.6062 C569.602,311.9512 569.246,310.4782 568.535,309.1842 C567.824,307.8912 566.855,306.8822 565.626,306.1582 C564.397,305.4352 563.008,305.0722 561.456,305.0722 C559.904,305.0722 558.515,305.4352 557.286,306.1582 C556.058,306.8822 555.089,307.8912 554.378,309.1842 C553.666,310.4782 553.311,311.9512 553.311,313.6062 C553.311,315.2612 553.666,316.7352 554.378,318.0282 C555.089,319.3212 556.058,320.3292 557.286,321.0532 C558.515,321.7772 559.904,322.1392 561.456,322.1392 C563.008,322.1392 564.397,321.7772 565.626,321.0532 M556.278,322.5662 C554.739,321.6862 553.53,320.4652 552.651,318.9002 C551.772,317.3362 551.332,315.5722 551.332,313.6062 C551.332,311.6412 551.772,309.8762 552.651,308.3112 C553.53,306.7472 554.739,305.5252 556.278,304.6452 C557.816,303.7672 559.542,303.3262 561.456,303.3262 C563.37,303.3262 565.096,303.7672 566.635,304.6452 C568.173,305.5252 569.382,306.7472 570.261,308.3112 C571.141,309.8762 571.58,311.6412 571.58,313.6062 C571.58,315.5722 571.141,317.3362 570.261,318.9002 C569.382,320.4652 568.173,321.6862 566.635,322.5662 C565.096,323.4462 563.37,323.8852 561.456,323.8852 C559.542,323.8852 557.816,323.4462 556.278,322.5662" id="Fill-46" fill="#FFFFFF"></path>
                <path d="M601.9121,303.4819 L601.9121,323.7299 L600.0511,323.7299 L600.0511,319.3849 C599.3781,320.8079 598.3831,321.9139 597.0631,322.7019 C595.7451,323.4909 594.1931,323.8849 592.4091,323.8849 C589.7711,323.8849 587.7031,323.1479 586.2031,321.6739 C584.7031,320.1999 583.9531,318.0799 583.9531,315.3129 L583.9531,303.4819 L585.8921,303.4819 L585.8921,315.1569 C585.8921,317.4329 586.4741,319.1659 587.6391,320.3559 C588.8021,321.5449 590.4431,322.1399 592.5641,322.1399 C594.8401,322.1399 596.6431,321.4279 597.9751,320.0059 C599.3071,318.5839 599.9731,316.6699 599.9731,314.2649 L599.9731,303.4819 L601.9121,303.4819 Z" id="Fill-48" fill="#FFFFFF"></path>
                <path d="M621.5,304.5103 C622.819,303.7213 624.422,303.3263 626.31,303.3263 L626.31,305.2273 L625.845,305.1893 C623.595,305.1893 621.836,305.8943 620.569,307.3023 C619.302,308.7133 618.669,310.6713 618.669,313.1793 L618.669,323.7293 L616.729,323.7293 L616.729,303.4823 L618.591,303.4823 L618.591,307.9043 C619.212,306.4293 620.182,305.2993 621.5,304.5103" id="Fill-50" fill="#FFFFFF"></path>
                <path d="M655.6338,323.1475 C654.1588,322.6575 653.0088,322.0365 652.1818,321.2865 L653.0728,319.7345 C653.9008,320.4325 654.9678,321.0145 656.2738,321.4805 C657.5788,321.9455 658.9438,322.1785 660.3658,322.1785 C662.4078,322.1785 663.9148,321.8425 664.8848,321.1695 C665.8538,320.4975 666.3388,319.5665 666.3388,318.3765 C666.3388,317.5235 666.0728,316.8515 665.5438,316.3605 C665.0138,315.8695 664.3618,315.5065 663.5848,315.2745 C662.8098,315.0415 661.7358,314.7955 660.3658,314.5365 C658.7618,314.2525 657.4688,313.9415 656.4868,313.6055 C655.5038,313.2705 654.6638,312.7275 653.9658,311.9775 C653.2678,311.2275 652.9178,310.1925 652.9178,308.8745 C652.9178,307.2705 653.5838,305.9445 654.9158,304.8985 C656.2468,303.8515 658.1418,303.3265 660.5988,303.3265 C661.8918,303.3265 663.1708,303.5085 664.4388,303.8705 C665.7048,304.2325 666.7398,304.7105 667.5418,305.3045 L666.6498,306.8565 C665.8218,306.2625 664.8778,305.8095 663.8178,305.4995 C662.7568,305.1895 661.6708,305.0335 660.5598,305.0335 C658.6718,305.0335 657.2488,305.3835 656.2928,306.0815 C655.3358,306.7795 654.8588,307.6975 654.8588,308.8345 C654.8588,309.7405 655.1288,310.4445 655.6718,310.9485 C656.2158,311.4535 656.8808,311.8285 657.6698,312.0735 C658.4578,312.3195 659.5638,312.5845 660.9868,312.8695 C662.5638,313.1535 663.8368,313.4575 664.8068,313.7805 C665.7768,314.1045 666.5978,314.6275 667.2698,315.3515 C667.9428,316.0755 668.2788,317.0715 668.2788,318.3385 C668.2788,320.0195 667.5798,321.3635 666.1838,322.3725 C664.7878,323.3805 662.8218,323.8855 660.2878,323.8855 C658.6588,323.8855 657.1078,323.6385 655.6338,323.1475" id="Fill-52" fill="#FFFFFF"></path>
                <path d="M692.3848,321.0532 C693.6138,320.3292 694.5828,319.3212 695.2938,318.0282 C696.0048,316.7352 696.3618,315.2612 696.3618,313.6062 C696.3618,311.9512 696.0048,310.4782 695.2938,309.1842 C694.5828,307.8912 693.6138,306.8822 692.3848,306.1582 C691.1558,305.4352 689.7668,305.0722 688.2158,305.0722 C686.6638,305.0722 685.2738,305.4352 684.0458,306.1582 C682.8178,306.8822 681.8478,307.8912 681.1368,309.1842 C680.4248,310.4782 680.0708,311.9512 680.0708,313.6062 C680.0708,315.2612 680.4248,316.7352 681.1368,318.0282 C681.8478,319.3212 682.8178,320.3292 684.0458,321.0532 C685.2738,321.7772 686.6638,322.1392 688.2158,322.1392 C689.7668,322.1392 691.1558,321.7772 692.3848,321.0532 M683.0368,322.5662 C681.4978,321.6862 680.2888,320.4652 679.4098,318.9002 C678.5308,317.3362 678.0918,315.5722 678.0918,313.6062 C678.0918,311.6412 678.5308,309.8762 679.4098,308.3112 C680.2888,306.7472 681.4978,305.5252 683.0368,304.6452 C684.5748,303.7672 686.3018,303.3262 688.2158,303.3262 C690.1288,303.3262 691.8548,303.7672 693.3938,304.6452 C694.9318,305.5252 696.1408,306.7472 697.0208,308.3112 C697.8998,309.8762 698.3388,311.6412 698.3388,313.6062 C698.3388,315.5722 697.8998,317.3362 697.0208,318.9002 C696.1408,320.4652 694.9318,321.6862 693.3938,322.5662 C691.8548,323.4462 690.1288,323.8852 688.2158,323.8852 C686.3018,323.8852 684.5748,323.4462 683.0368,322.5662" id="Fill-54" fill="#FFFFFF"></path>
                <path d="M713.2334,300.5347 L713.2334,303.4817 L719.7124,303.4817 L719.7124,305.1507 L713.2724,305.1507 L713.2724,323.7297 L711.3334,323.7297 L711.3334,305.1507 L707.6094,305.1507 L707.6094,303.4817 L711.3334,303.4817 L711.3334,300.3787 C711.3334,298.6727 711.8244,297.3147 712.8064,296.3057 C713.7894,295.2977 715.1734,294.7937 716.9584,294.7937 C717.7334,294.7937 718.4764,294.9037 719.1874,295.1227 C719.8984,295.3437 720.4874,295.6727 720.9534,296.1127 L720.1764,297.5857 C719.3484,296.8367 718.3014,296.4617 717.0354,296.4617 C714.5014,296.4617 713.2334,297.8187 713.2334,300.5347" id="Fill-56" fill="#FFFFFF"></path>
                <path d="M740.3076,322.4497 C739.8156,322.9147 739.2026,323.2707 738.4646,323.5157 C737.7276,323.7617 736.9576,323.8857 736.1576,323.8857 C734.3986,323.8857 733.0406,323.4007 732.0836,322.4297 C731.1266,321.4607 730.6496,320.1097 730.6496,318.3767 L730.6496,305.1507 L726.9256,305.1507 L726.9256,303.4817 L730.6496,303.4817 L730.6496,299.0597 L732.5876,299.0597 L732.5876,303.4817 L739.0276,303.4817 L739.0276,305.1507 L732.5876,305.1507 L732.5876,318.1827 C732.5876,319.5017 732.9056,320.5037 733.5386,321.1887 C734.1716,321.8737 735.1096,322.2167 736.3516,322.2167 C737.6186,322.2167 738.6646,321.8427 739.4936,321.0917 L740.3076,322.4497 Z" id="Fill-58" fill="#FFFFFF"></path>
                <polygon id="Fill-60" fill="#FFFFFF" points="780.8418 303.4819 773.1608 323.7299 771.3388 323.7299 764.5118 306.1579 757.6458 323.7299 755.8618 323.7299 748.1818 303.4819 750.0428 303.4819 756.7928 321.5579 763.6968 303.4819 765.3648 303.4819 772.2308 321.5189 779.0578 303.4819"></polygon>
                <path d="M801.3408,321.1309 C802.5178,320.3559 803.4038,319.2309 803.9978,317.7559 L803.9978,313.9559 L797.0938,313.9559 C795.1028,313.9559 793.6608,314.3179 792.7698,315.0419 C791.8768,315.7659 791.4308,316.7609 791.4308,318.0279 C791.4308,319.3469 791.9218,320.3879 792.9048,321.1499 C793.8868,321.9139 795.2708,322.2939 797.0548,322.2939 C798.7358,322.2939 800.1638,321.9069 801.3408,321.1309 M803.9208,305.2469 C805.2648,306.5269 805.9378,308.4079 805.9378,310.8909 L805.9378,323.7299 L804.0748,323.7299 L804.0748,320.1229 C803.4298,321.3119 802.4858,322.2359 801.2438,322.8959 C800.0028,323.5549 798.5158,323.8849 796.7828,323.8849 C794.5338,323.8849 792.7558,323.3549 791.4498,322.2939 C790.1448,321.2349 789.4908,319.8379 789.4908,318.1049 C789.4908,316.4249 790.0928,315.0609 791.2948,314.0129 C792.4968,312.9659 794.4178,312.4429 797.0548,312.4429 L803.9978,312.4429 L803.9978,310.8129 C803.9978,308.9259 803.4868,307.4909 802.4658,306.5079 C801.4448,305.5249 799.9508,305.0339 797.9868,305.0339 C796.6418,305.0339 795.3548,305.2659 794.1268,305.7319 C792.8988,306.1969 791.8578,306.8179 791.0038,307.5939 L790.0338,306.1969 C791.0428,305.2929 792.2578,304.5879 793.6808,304.0839 C795.1028,303.5799 796.5898,303.3269 798.1408,303.3269 C800.6498,303.3269 802.5758,303.9669 803.9208,305.2469" id="Fill-62" fill="#FFFFFF"></path>
                <path d="M825.293,304.5103 C826.611,303.7213 828.215,303.3263 830.103,303.3263 L830.103,305.2273 L829.637,305.1893 C827.388,305.1893 825.629,305.8943 824.361,307.3023 C823.095,308.7133 822.461,310.6713 822.461,313.1793 L822.461,323.7293 L820.522,323.7293 L820.522,303.4823 L822.384,303.4823 L822.384,307.9043 C823.004,306.4293 823.975,305.2993 825.293,304.5103" id="Fill-64" fill="#FFFFFF"></path>
                <path d="M845.501,305.9834 C844.363,306.6174 843.452,307.5094 842.768,308.6604 C842.082,309.8114 841.687,311.1114 841.584,312.5584 L857.1,312.5584 C857.022,311.1114 856.634,309.8184 855.936,308.6804 C855.237,307.5424 854.319,306.6504 853.182,306.0044 C852.043,305.3574 850.764,305.0334 849.342,305.0334 C847.92,305.0334 846.64,305.3504 845.501,305.9834 Z M858.961,314.0714 L841.546,314.0714 C841.597,315.6494 841.997,317.0514 842.747,318.2794 C843.497,319.5084 844.513,320.4584 845.793,321.1304 C847.072,321.8034 848.514,322.1394 850.117,322.1394 C851.437,322.1394 852.658,321.9004 853.783,321.4224 C854.908,320.9434 855.845,320.2384 856.595,319.3084 L857.72,320.5874 C856.841,321.6484 855.735,322.4624 854.403,323.0314 C853.071,323.6004 851.63,323.8854 850.079,323.8854 C848.062,323.8854 846.265,323.4454 844.688,322.5664 C843.109,321.6864 841.875,320.4714 840.982,318.9204 C840.091,317.3684 839.645,315.5974 839.645,313.6064 C839.645,311.6414 840.064,309.8764 840.905,308.3114 C841.745,306.7474 842.903,305.5254 844.377,304.6454 C845.851,303.7674 847.505,303.3264 849.342,303.3264 C851.178,303.3264 852.826,303.7604 854.287,304.6264 C855.748,305.4934 856.898,306.7014 857.739,308.2534 C858.579,309.8044 859,311.5644 859,313.5284 L858.961,314.0714 Z" id="Fill-66" fill="#FFFFFF"></path>
            </g>
        </g>
    </g>
</svg>